<?xml version="1.0" standalone="no"?>
<!DOCTYPE svg PUBLIC "-//W3C//DTD SVG 20010904//EN"
 "http://www.w3.org/TR/2001/REC-SVG-20010904/DTD/svg10.dtd">
<svg version="1.0" xmlns="http://www.w3.org/2000/svg"
 width="600.000000pt" height="588.000000pt" viewBox="0 0 600.000000 588.000000"
 preserveAspectRatio="xMidYMid meet">
<g transform="translate(0.000000,588.000000) scale(0.100000,-0.100000)"
fill="#0a77ae" stroke="none">
<path d="M2935 5783 c-16 -32 -76 -139 -133 -238 -58 -99 -116 -200 -130 -225
-13 -25 -32 -54 -42 -65 -10 -11 -23 -31 -30 -45 -7 -14 -36 -63 -65 -110 -28
-47 -74 -123 -102 -170 -47 -78 -131 -217 -222 -363 -20 -33 -54 -89 -76 -127
-60 -101 -184 -309 -214 -357 -14 -23 -39 -64 -56 -92 -16 -28 -58 -95 -92
-149 -35 -53 -63 -102 -63 -107 0 -6 -15 -33 -33 -60 -19 -28 -53 -86 -77
-130 -24 -44 -55 -98 -70 -120 -28 -41 -61 -95 -273 -450 -69 -115 -141 -235
-160 -265 -18 -30 -56 -92 -83 -138 -27 -46 -56 -95 -65 -110 -110 -181 -219
-364 -219 -369 0 -3 -11 -21 -25 -39 -14 -18 -25 -35 -25 -39 0 -3 -10 -22
-23 -43 -13 -20 -41 -66 -62 -102 -21 -36 -52 -87 -70 -115 -38 -60 -200 -328
-235 -390 -30 -53 -60 -105 -170 -290 -45 -77 -82 -150 -82 -161 0 -18 78
-160 166 -304 12 -19 30 -51 40 -70 10 -19 31 -57 47 -85 15 -27 44 -79 63
-115 18 -36 43 -76 54 -90 l20 -25 539 -2 c598 -3 576 -5 598 38 19 36 195
285 222 314 11 11 41 52 67 90 26 39 72 104 102 145 30 41 70 98 89 125 82
118 269 379 315 441 14 18 49 68 79 111 30 43 63 89 74 103 99 128 232 316
257 361 52 98 32 108 288 -153 126 -128 251 -259 278 -290 59 -69 75 -71 114
-15 17 23 46 65 66 92 121 172 209 292 274 380 41 55 82 109 90 121 20 30 140
195 195 269 25 33 68 94 96 135 29 41 80 111 114 155 34 44 78 108 99 141 l37
62 -4 266 c-3 170 -8 271 -15 278 -13 13 -92 12 -135 -1 -18 -6 -88 -20 -157
-32 -189 -32 -202 -42 -340 -239 -36 -50 -107 -148 -157 -217 -51 -69 -93
-127 -93 -129 0 -3 -22 -33 -48 -67 -27 -34 -59 -81 -73 -105 -33 -59 -63 -65
-97 -21 -14 19 -121 131 -239 249 -183 185 -215 213 -230 204 -16 -9 -60 -69
-227 -309 -20 -27 -63 -88 -97 -135 -34 -47 -80 -112 -102 -145 -23 -33 -45
-64 -50 -70 -22 -27 -272 -374 -351 -489 -27 -39 -61 -85 -75 -103 -14 -17
-38 -48 -53 -70 -15 -21 -55 -76 -90 -123 -71 -96 -91 -126 -165 -237 -80
-120 -81 -121 -198 -125 -128 -4 -129 1 -40 135 36 54 65 100 65 102 0 4 142
238 210 345 26 41 64 107 85 145 21 39 44 77 51 85 7 8 23 34 36 58 13 23 45
79 72 125 112 185 256 429 256 432 0 1 40 67 90 146 49 79 106 173 126 209 21
36 118 200 217 365 99 165 188 314 197 330 9 17 32 56 51 88 19 31 52 90 74
130 49 87 66 94 101 35 143 -240 362 -608 376 -633 54 -93 98 -177 98 -184 0
-5 7 -15 16 -22 20 -16 23 -12 131 151 42 63 85 126 95 140 11 14 36 48 56 77
130 183 241 333 277 371 64 69 63 74 -67 280 -57 89 -123 198 -148 243 -25 44
-100 173 -167 286 -68 113 -123 207 -123 209 0 3 -120 198 -165 269 -62 97
-249 412 -328 553 -44 78 -85 142 -92 142 -6 0 -25 -26 -40 -57z m121 -274
c13 -37 24 -75 24 -85 0 -11 11 -41 25 -69 13 -27 30 -71 36 -98 7 -26 16 -42
19 -36 4 6 13 -3 20 -20 7 -17 15 -31 19 -31 3 0 7 -12 8 -27 3 -58 12 -84 42
-122 17 -21 31 -44 31 -50 0 -6 6 -8 14 -5 12 4 30 -26 27 -47 0 -4 10 -15 22
-25 21 -19 21 -19 7 1 -14 19 -14 19 3 6 14 -11 15 -17 5 -28 -9 -11 -9 -13 2
-11 13 3 50 -52 43 -64 -2 -4 3 -23 11 -43 8 -19 12 -35 8 -35 -4 0 2 -7 12
-15 11 -8 16 -15 10 -15 -5 0 -2 -5 6 -10 12 -8 13 -13 3 -30 -18 -28 -17 -30
18 -30 19 0 29 -4 27 -12 -2 -6 7 -23 20 -37 45 -48 53 -149 11 -136 -14 5
-17 2 -13 -9 3 -9 12 -12 21 -9 10 4 14 2 10 -3 -3 -6 5 -22 19 -37 30 -33 30
-34 -3 -40 -33 -6 -55 1 -46 16 4 7 0 8 -12 3 -18 -7 -18 -6 -1 13 17 19 17
20 -6 23 -17 2 -23 9 -22 25 1 13 -3 20 -7 17 -5 -3 -7 -9 -4 -14 3 -4 -2 -11
-11 -14 -8 -3 -12 -2 -9 4 3 6 0 10 -7 11 -9 0 -9 2 -2 5 16 7 5 43 -16 54
-25 14 -31 1 -13 -29 11 -20 12 -22 0 -8 -13 15 -47 24 -47 12 0 -2 18 -40 40
-84 22 -43 40 -81 40 -84 0 -9 66 -115 81 -129 17 -16 65 -38 84 -38 22 0 18
15 -7 28 -22 11 -22 11 5 7 44 -6 62 4 38 22 -12 8 -27 13 -34 11 -17 -4 -21
7 -14 41 8 36 56 51 65 19 3 -11 10 -17 19 -14 8 3 12 2 9 -3 -3 -5 6 -12 19
-15 14 -4 23 -10 20 -15 -2 -5 2 -12 10 -15 17 -6 -7 -38 -35 -48 -24 -8 -20
-38 4 -38 12 0 27 -5 34 -12 8 -8 15 -8 27 2 19 16 73 -4 71 -27 -1 -10 16
-22 50 -33 114 -39 124 -66 22 -57 -68 6 -107 15 -295 64 -92 24 -95 22 -83
-52 11 -65 14 -496 4 -532 -4 -13 -10 -23 -14 -23 -13 0 -40 104 -40 153 0 25
-5 58 -10 73 -6 15 -12 119 -14 231 -4 223 3 194 -86 358 -43 79 -122 227
-214 400 -99 186 -112 201 -110 131 4 -96 36 -214 60 -220 14 -4 21 -12 20
-23 -2 -10 1 -31 6 -48 17 -55 19 -70 20 -107 1 -21 6 -38 12 -38 6 0 4 -5 -4
-10 -13 -8 -12 -10 3 -10 9 0 17 -7 17 -15 0 -7 7 -18 16 -23 16 -9 10 -62 -7
-62 -5 0 -9 -7 -9 -16 0 -9 -9 -23 -20 -32 -19 -17 -19 -17 0 -42 15 -20 21
-23 31 -12 7 6 31 11 53 11 23 -1 34 -3 26 -5 -24 -7 -43 -42 -22 -40 13 1 16
-6 14 -27 -3 -26 -1 -28 20 -21 20 6 21 5 9 -9 -19 -24 -7 -44 36 -62 l38 -16
-25 -14 c-14 -7 -26 -9 -28 -4 -2 5 -8 7 -12 4 -20 -13 -67 30 -64 58 1 15 -2
25 -7 22 -5 -4 -9 0 -9 9 0 19 -20 26 -43 14 -13 -6 -25 -3 -43 11 -15 12 -30
18 -35 15 -5 -3 -9 0 -9 5 0 6 6 11 13 11 6 0 4 5 -6 11 -14 8 -23 7 -36 -5
-28 -25 -60 -20 -72 11 -7 18 -9 168 -5 439 2 226 1 427 -3 445 -8 41 4 556
14 618 l8 43 14 -33 c8 -19 26 -64 39 -100z m-241 -131 c-14 -57 -38 -141 -54
-188 -16 -47 -48 -143 -70 -215 -23 -71 -50 -152 -61 -180 -10 -27 -26 -75
-35 -105 -9 -30 -19 -62 -22 -70 -4 -8 -12 -33 -18 -55 -7 -22 -42 -125 -77
-230 -36 -104 -77 -226 -91 -270 -15 -44 -40 -118 -57 -165 -17 -47 -35 -98
-40 -115 -13 -51 -90 -279 -100 -300 -5 -11 -28 -78 -50 -150 -23 -71 -45
-138 -51 -147 -5 -10 -9 -25 -9 -33 0 -8 -11 -38 -25 -67 -14 -28 -25 -61 -25
-72 0 -12 -14 -59 -31 -106 -17 -47 -39 -112 -49 -145 -10 -33 -30 -91 -43
-130 -78 -215 -111 -308 -137 -380 -32 -90 -52 -142 -80 -200 -10 -22 -22 -51
-25 -64 -5 -16 -10 -20 -18 -12 -7 7 -6 21 5 48 9 21 22 65 29 98 7 33 19 71
26 85 7 14 13 33 13 42 0 9 4 27 9 40 5 13 19 57 31 98 11 41 32 110 45 152
14 43 25 84 25 92 0 9 11 44 24 78 14 35 41 117 62 183 52 170 86 268 96 279
4 6 8 20 8 32 0 12 15 64 33 115 19 52 39 117 46 146 7 29 19 57 27 64 8 7 14
30 14 60 0 26 5 51 10 54 6 4 8 10 6 13 -2 4 9 34 24 66 21 43 27 67 23 90 -3
17 -2 28 2 23 8 -7 31 36 42 78 14 56 15 65 5 65 -6 0 -14 -10 -18 -22 l-7
-23 -10 22 c-21 47 -49 41 -50 -11 -1 -30 -4 -33 -19 -25 -10 5 -18 16 -18 24
0 8 -10 25 -21 36 l-22 22 24 13 c13 7 31 13 40 14 12 0 15 7 11 25 -4 22 -1
25 27 25 24 0 31 4 31 19 0 28 27 33 49 10 13 -14 21 -17 26 -9 4 6 -1 17 -11
24 -10 8 -15 20 -11 30 4 9 2 16 -2 16 -5 0 -11 -4 -13 -9 -6 -17 -44 -21 -64
-6 -18 14 -18 14 6 16 14 1 28 1 31 1 4 -1 6 18 6 41 0 22 5 43 12 45 6 2 11
10 11 17 0 16 39 47 50 40 4 -3 10 5 13 16 6 22 -15 54 -27 42 -3 -4 -6 -2 -6
4 0 5 9 18 20 28 11 10 20 24 20 30 0 7 15 32 34 56 19 23 32 47 30 51 -3 4 0
8 5 8 6 0 11 15 11 33 0 46 10 77 25 77 7 0 25 33 40 74 15 41 33 77 41 80 8
3 14 14 14 24 0 10 8 26 18 36 11 9 25 35 31 59 7 23 19 49 27 58 8 9 18 34
21 55 3 22 9 44 13 49 4 6 15 37 25 69 10 32 29 70 41 83 13 14 33 46 44 72
12 25 31 66 44 91 13 25 27 59 31 75 6 20 10 24 12 13 2 -9 -7 -63 -22 -120z
m472 -375 c-4 -3 -7 0 -7 7 0 7 3 10 7 7 3 -4 3 -10 0 -14z m163 -278 c0 -3
-2 -5 -5 -5 -3 0 -5 2 -5 5 0 3 2 5 5 5 3 0 5 -2 5 -5z m-650 -30 c0 -3 -2 -5
-5 -5 -3 0 -5 2 -5 5 0 3 2 5 5 5 3 0 5 -2 5 -5z m-63 -22 c-4 -3 -10 -3 -14
0 -3 4 0 7 7 7 7 0 10 -3 7 -7z m103 -42 c0 -4 -12 -20 -27 -35 -14 -14 -23
-29 -20 -33 4 -3 7 -2 7 4 0 16 34 4 47 -16 9 -14 8 -25 -3 -46 -8 -15 -14
-36 -14 -46 0 -12 -7 -19 -19 -19 -23 0 -36 -16 -21 -25 5 -3 10 -2 10 4 0 5
14 9 30 9 17 -1 30 -2 30 -4 0 -12 -14 -34 -22 -34 -30 0 -38 -29 -15 -54 13
-14 27 -23 30 -19 4 3 7 1 7 -6 0 -7 4 -10 9 -6 5 3 12 -3 14 -12 3 -13 5 -11
7 7 l2 25 7 -25 c9 -28 -11 -54 -54 -70 -23 -9 -24 -13 -21 -64 4 -41 1 -56
-10 -60 -8 -3 -14 -1 -14 5 0 6 -6 9 -12 6 -7 -2 -12 -11 -10 -21 2 -9 -2 -16
-7 -16 -6 0 -8 -6 -5 -14 3 -8 -3 -16 -16 -19 -12 -3 -19 -10 -15 -16 3 -6 1
-11 -4 -11 -6 0 -11 -7 -11 -15 0 -8 -6 -15 -12 -15 -10 0 -10 -2 0 -9 10 -6
8 -10 -8 -14 -12 -3 -19 -10 -16 -16 4 -5 2 -13 -4 -16 -8 -5 -7 -11 1 -21 10
-12 10 -15 -2 -12 -8 2 -13 -4 -13 -14 1 -9 -5 -19 -12 -22 -8 -3 -14 -2 -14
2 0 4 -13 9 -30 10 -26 2 -30 -1 -30 -25 0 -26 -24 -63 -42 -63 -4 0 -8 11 -8
25 0 20 -5 25 -25 25 -14 0 -25 2 -25 4 0 16 14 36 25 36 14 0 27 73 13 78 -4
2 -8 8 -8 13 0 4 7 6 16 2 21 -8 34 14 34 61 0 29 3 37 14 33 10 -4 13 -1 9 9
-3 7 0 14 7 14 8 0 9 10 5 30 -7 33 18 86 35 75 6 -4 10 13 10 39 0 25 4 46
10 46 5 0 13 18 16 40 4 22 11 40 16 40 28 0 51 54 26 62 -9 3 -8 16 5 50 11
27 15 56 11 72 -7 28 13 56 40 56 9 0 16 6 16 14 0 8 6 17 13 19 20 9 47 8 47
-2z m-440 -26 c0 -3 -2 -5 -5 -5 -3 0 -5 2 -5 5 0 3 2 5 5 5 3 0 5 -2 5 -5z
m-3 -37 c-3 -8 -6 -5 -6 6 -1 11 2 17 5 13 3 -3 4 -12 1 -19z m1013 -93 c0 -3
-2 -5 -5 -5 -3 0 -5 2 -5 5 0 3 2 5 5 5 3 0 5 -2 5 -5z m200 -105 c-1 -12 -4
-11 -15 4 -8 10 -12 23 -8 29 7 11 23 -12 23 -33z m-130 -20 c0 -5 -2 -10 -4
-10 -3 0 -8 5 -11 10 -3 6 -1 10 4 10 6 0 11 -4 11 -10z m138 -39 c-7 -9 -18
-21 -25 -28 -6 -7 -13 -18 -16 -25 -2 -7 -7 -10 -11 -7 -8 7 14 72 27 81 20
13 39 -3 25 -21z m-48 -126 c0 -3 -2 -5 -5 -5 -3 0 -5 2 -5 5 0 3 2 5 5 5 3 0
5 -2 5 -5z m-360 -10 c0 -3 -2 -5 -5 -5 -3 0 -5 2 -5 5 0 3 2 5 5 5 3 0 5 -2
5 -5z m-1050 -20 c0 -3 -2 -5 -5 -5 -3 0 -5 2 -5 5 0 3 2 5 5 5 3 0 5 -2 5 -5z
m1067 -1 c-3 -3 -12 -4 -19 -1 -8 3 -5 6 6 6 11 1 17 -2 13 -5z m523 -28 c0
-2 -7 -7 -16 -10 -8 -3 -12 -2 -9 4 6 10 25 14 25 6z m-660 -40 c0 -3 -4 -8
-10 -11 -5 -3 -10 -1 -10 4 0 6 5 11 10 11 6 0 10 -2 10 -4z m-563 -53 c-4 -3
-10 -3 -14 0 -3 4 0 7 7 7 7 0 10 -3 7 -7z m-417 -78 c0 -3 -2 -5 -5 -5 -3 0
-5 2 -5 5 0 3 2 5 5 5 3 0 5 -2 5 -5z m-15 -25 c-11 -5 -14 -9 -7 -9 22 -1 2
-21 -21 -21 -18 0 -19 2 -7 10 8 5 11 10 5 10 -5 0 -3 5 5 10 8 5 22 9 30 9
10 0 8 -3 -5 -9z m44 -52 c0 -28 -2 -30 -9 -13 -12 28 -12 45 0 45 6 0 10 -15
9 -32z m51 27 c0 -3 -2 -5 -5 -5 -3 0 -5 2 -5 5 0 3 2 5 5 5 3 0 5 -2 5 -5z
m-80 -41 c0 -8 -4 -14 -10 -14 -5 0 -10 9 -10 21 0 11 5 17 10 14 6 -3 10 -13
10 -21z m1260 -19 c0 -3 -2 -5 -5 -5 -3 0 -5 2 -5 5 0 3 2 5 5 5 3 0 5 -2 5
-5z m-1370 -10 c0 -3 -2 -5 -5 -5 -3 0 -5 2 -5 5 0 3 2 5 5 5 3 0 5 -2 5 -5z
m53 -68 c-10 -21 -8 -28 13 -46 29 -25 30 -41 4 -68 -16 -18 -17 -22 -5 -27 8
-3 15 -14 15 -25 0 -23 -26 -18 -48 8 -11 14 -11 14 -6 -1 4 -12 1 -18 -9 -18
-23 0 -27 -13 -16 -51 11 -36 -3 -119 -20 -119 -4 0 -8 -21 -9 -46 0 -26 -6
-50 -12 -54 -7 -4 -10 -12 -7 -16 3 -5 -1 -15 -9 -22 -8 -7 -14 -9 -14 -5 0
13 -20 -21 -20 -35 0 -7 5 -10 12 -6 7 4 8 3 4 -5 -5 -8 -12 -9 -19 -2 -9 6
-12 2 -13 -16 -2 -32 -10 -39 -29 -23 -9 7 -18 10 -22 6 -3 -3 -1 -6 5 -6 7 0
12 -9 12 -21 0 -16 4 -19 20 -14 18 6 20 3 18 -17 -5 -35 -17 -48 -43 -48 -28
0 -24 -34 6 -51 22 -11 25 -32 7 -46 -14 -11 -63 9 -51 20 3 4 1 7 -5 7 -5 0
-18 3 -27 6 -18 7 -17 -15 2 -31 13 -11 6 -65 -8 -65 -5 0 -6 -7 -3 -15 4 -10
0 -15 -11 -15 -9 0 -13 -4 -10 -10 12 -19 -14 -10 -28 10 -13 18 -16 19 -27 5
-7 -8 -8 -15 -3 -15 19 0 53 -38 53 -59 0 -24 -21 -51 -39 -51 -6 0 -11 -5
-11 -11 0 -6 -9 -8 -22 -4 -21 5 -21 5 -5 -5 10 -7 29 -9 43 -6 21 6 24 3 24
-19 0 -15 5 -35 10 -45 11 -21 -7 -41 -19 -21 -6 9 -15 8 -35 -3 -15 -7 -23
-17 -17 -20 5 -4 7 -14 4 -22 -3 -9 0 -20 8 -25 9 -6 -4 -9 -38 -9 -64 0 -77
-27 -16 -32 41 -3 55 -23 24 -33 -17 -5 -19 -10 -11 -26 12 -22 1 -25 -20 -6
-13 10 -13 10 -2 -3 17 -20 15 -53 -5 -89 -16 -28 -16 -33 -3 -41 10 -6 11
-10 3 -10 -7 0 -13 -9 -13 -20 0 -11 -5 -20 -11 -20 -6 0 -17 -7 -25 -15 -14
-13 -13 -15 4 -15 22 0 37 -26 22 -35 -6 -4 -10 0 -10 7 0 9 -3 9 -10 -2 -7
-11 -10 -12 -10 -2 0 10 -3 10 -15 -2 -10 -9 -15 -34 -15 -71 0 -47 -3 -56
-15 -51 -20 7 -30 -35 -15 -63 7 -14 7 -21 0 -21 -5 0 -10 7 -10 15 0 8 -9 15
-21 15 -11 0 -18 3 -16 8 3 4 -1 12 -8 19 -10 9 -15 9 -17 1 -3 -8 -9 -8 -24
0 -10 6 -14 12 -9 12 6 0 4 4 -4 9 -10 6 -4 12 22 20 25 9 34 17 30 27 -4 10
0 12 11 8 9 -3 16 -10 16 -15 0 -5 5 -9 10 -9 6 0 4 14 -5 33 -8 17 -10 24 -3
14 37 -53 37 -54 38 -26 0 17 -8 30 -25 39 -14 7 -25 20 -25 27 0 7 -7 16 -15
19 -22 9 -18 24 6 24 l21 0 -21 36 c-23 38 -19 64 5 39 9 -8 21 -12 27 -8 7 4
8 8 0 10 -11 4 -5 51 9 70 5 6 17 9 25 6 11 -4 14 -2 9 5 -4 7 -1 12 8 12 12
0 16 10 16 35 0 21 -5 35 -12 35 -9 0 -8 4 2 10 10 6 11 10 3 10 -29 0 -14 51
20 65 18 8 25 14 15 15 -23 0 -23 18 -1 42 15 17 15 18 0 18 -21 0 -22 10 -13
136 3 35 14 57 25 49 5 -2 25 4 46 14 36 17 36 18 14 25 l-24 7 29 15 c15 9
37 14 47 11 11 -3 16 -1 13 5 -3 5 -23 7 -45 3 -35 -6 -38 -5 -34 16 2 12 14
28 25 36 11 8 20 24 19 36 0 18 -2 19 -7 5 -8 -20 -34 -9 -38 16 -1 9 1 14 5
11 15 -9 47 40 46 69 -1 21 7 34 30 50 19 13 29 28 27 39 -2 9 4 20 13 23 12
5 13 9 4 20 -9 11 -8 14 2 14 11 0 11 3 -1 11 -11 8 -12 12 -2 16 6 2 9 9 6
14 -3 6 -1 15 4 22 6 7 11 17 11 22 1 6 21 10 46 10 55 0 54 19 -1 23 -42 4
-62 16 -45 26 6 4 11 2 11 -3 0 -6 4 -11 9 -11 6 0 9 9 8 20 -1 11 -6 20 -12
20 -5 0 -3 5 5 11 11 8 12 12 3 16 -25 9 12 30 47 27 28 -3 30 -2 11 4 -35 11
-41 35 -7 26 21 -5 25 -3 20 10 -3 9 -11 16 -18 17 -6 0 3 7 19 14 23 11 26
14 10 15 -17 0 -17 2 -5 10 8 5 11 10 7 10 -4 0 4 16 19 35 14 19 23 35 18 35
-4 0 -3 5 4 12 17 17 15 28 -5 28 -14 0 -12 4 7 25 13 14 32 25 42 25 10 0 18
7 18 15 0 23 33 36 49 20 11 -11 12 -20 4 -38z m76 17 c-15 -18 -28 -18 -36 2
-8 20 17 36 34 22 10 -8 10 -14 2 -24z m43 21 c0 -5 -5 -11 -11 -13 -6 -2 -11
4 -11 13 0 9 5 15 11 13 6 -2 11 -8 11 -13z m318 -10 c0 -3 -2 -5 -5 -5 -3 0
-5 2 -5 5 0 3 2 5 5 5 3 0 5 -2 5 -5z m90 1 c0 -3 -4 -8 -10 -11 -5 -3 -10 -1
-10 4 0 6 5 11 10 11 6 0 10 -2 10 -4z m850 -51 c0 -3 -2 -5 -5 -5 -3 0 -5 2
-5 5 0 3 2 5 5 5 3 0 5 -2 5 -5z m-927 -45 c3 -11 1 -23 -4 -26 -12 -7 -49 5
-49 16 0 5 7 7 15 4 9 -4 15 0 15 10 0 23 17 20 23 -4z m937 -10 c0 -5 -4 -10
-10 -10 -5 0 -10 5 -10 10 0 6 5 10 10 10 6 0 10 -4 10 -10z m-957 -58 c-16
-45 -37 -49 -52 -8 -7 18 -4 22 18 27 33 7 42 3 34 -19z m-593 4 c0 -3 -5 -8
-12 -12 -7 -4 -8 -3 -4 4 7 12 16 16 16 8z m-20 -31 c0 -3 -2 -5 -5 -5 -3 0
-5 2 -5 5 0 3 2 5 5 5 3 0 5 -2 5 -5z m160 -35 c0 -5 -5 -10 -11 -10 -5 0 -7
5 -4 10 3 6 8 10 11 10 2 0 4 -4 4 -10z m60 -15 c0 -3 -2 -5 -5 -5 -3 0 -5 2
-5 5 0 3 2 5 5 5 3 0 5 -2 5 -5z m337 -1 c-3 -3 -12 -4 -19 -1 -8 3 -5 6 6 6
11 1 17 -2 13 -5z m-18 -23 c9 -6 10 -11 2 -15 -6 -4 -11 -22 -11 -39 0 -25
-3 -28 -10 -17 -9 13 -11 13 -19 1 -7 -11 -11 -5 -17 23 -8 48 18 71 55 47z
m-386 -147 c-7 -19 -10 -18 -16 5 -3 13 -1 18 9 14 7 -2 10 -11 7 -19z m2327
-49 c0 -27 -117 -206 -308 -472 -20 -28 -98 -136 -171 -240 -74 -103 -156
-215 -181 -248 -25 -33 -71 -96 -101 -140 -31 -44 -81 -115 -112 -159 -32 -43
-57 -84 -57 -91 0 -8 -10 -17 -22 -21 -19 -6 -58 29 -285 260 -144 146 -264
266 -267 266 -2 0 -16 -21 -32 -47 -15 -27 -66 -100 -113 -163 -149 -200 -263
-355 -314 -430 -36 -52 -95 -135 -137 -190 -119 -158 -154 -206 -201 -273
-171 -247 -215 -296 -377 -420 -56 -42 -104 -77 -107 -77 -3 0 -47 -29 -98
-64 -50 -35 -105 -71 -122 -80 -16 -9 -46 -27 -66 -39 -66 -41 -224 -135 -264
-157 -22 -12 -53 -29 -70 -39 -61 -36 -145 -80 -151 -80 -2 1 -18 -5 -35 -11
-16 -7 -33 -9 -37 -5 -4 4 -1 10 6 12 6 3 12 10 12 16 0 13 38 42 55 42 17 1
75 65 58 65 -20 0 -11 24 10 28 12 2 17 -4 17 -20 1 -21 2 -22 14 -6 7 10 16
15 19 12 3 -3 11 -3 17 1 8 5 5 11 -7 21 -16 12 -16 15 -3 23 10 7 17 6 23 -4
9 -17 47 -20 47 -5 0 6 -4 10 -8 10 -5 0 -17 7 -28 16 -19 15 -19 15 2 9 13
-3 26 1 34 10 7 8 21 15 32 15 10 0 16 5 13 10 -4 6 8 10 30 10 32 0 35 2 25
19 -5 11 -19 22 -29 26 -18 5 -17 8 11 35 32 31 57 37 74 20 8 -8 15 -6 23 4
10 12 9 17 -8 28 -12 7 -21 18 -21 24 0 18 60 69 78 66 10 -1 33 9 51 22 l34
25 -28 7 -28 7 29 12 c34 13 73 8 81 -11 8 -21 23 -17 23 5 0 14 5 18 20 14
15 -4 20 0 20 16 0 12 5 19 10 16 6 -3 10 1 10 9 0 9 -8 16 -17 17 -13 0 -14
2 -4 6 8 3 19 -1 25 -9 6 -8 24 -18 39 -22 15 -3 25 -11 22 -15 -3 -5 1 -12 7
-14 7 -3 -6 -6 -29 -6 -23 -1 -44 -4 -46 -8 -7 -11 84 -4 109 9 22 10 26 45 5
41 -6 -2 -11 2 -11 8 0 6 7 8 16 5 8 -3 25 -1 36 5 18 10 20 9 15 -5 -9 -23
20 -20 33 3 8 16 6 23 -11 35 l-21 14 22 12 c18 10 20 14 9 22 -11 8 -10 9 4
4 9 -3 17 -1 17 5 0 12 49 9 67 -4 14 -10 27 9 17 25 -13 21 -11 56 3 51 7 -3
13 0 13 6 0 6 6 11 13 11 7 0 21 11 31 25 10 14 25 25 33 25 11 0 13 7 9 27
-4 14 -2 39 4 54 15 35 40 46 40 18 0 -23 24 -21 26 2 4 50 3 49 30 37 22 -11
27 -9 37 7 6 11 22 32 36 46 33 33 71 86 71 97 0 5 11 19 25 32 14 13 25 27
25 32 0 12 79 128 107 157 13 13 23 27 23 32 0 4 32 46 70 93 38 47 70 88 70
91 0 10 140 212 160 230 11 10 20 22 20 27 0 11 38 62 163 217 l87 110 0 103
c1 158 17 221 46 180 8 -12 21 -22 28 -22 13 0 62 -88 58 -104 -2 -4 2 -14 8
-21 6 -8 10 -20 8 -28 -3 -13 35 -55 74 -82 68 -48 112 -74 118 -70 14 9 43
-46 31 -58 -7 -7 -7 -14 0 -24 9 -10 15 -8 28 9 l18 21 20 -20 c12 -12 32 -24
45 -28 18 -5 20 -4 8 4 -13 9 -12 11 3 11 11 0 21 -8 24 -19 6 -24 39 -17 70
17 12 13 26 21 31 18 12 -7 26 22 23 47 -3 21 8 22 24 1 16 -22 40 -7 41 26 3
53 3 53 34 47 28 -6 60 20 44 36 -3 3 5 11 17 18 17 9 24 9 27 1 3 -9 9 -9 23
-1 22 11 10 39 -17 39 -8 0 -14 9 -14 20 0 31 1 35 11 33 5 -2 9 4 9 12 0 8 7
15 15 15 8 0 15 7 15 15 0 8 11 22 25 31 15 10 25 26 25 40 0 20 11 35 30 40
46 14 55 24 59 60 1 10 30 34 53 44 22 10 22 10 -4 7 -20 -3 -26 0 -25 13 1
10 7 16 13 13 16 -6 36 31 24 43 -6 6 2 23 20 44 17 19 30 44 30 55 0 14 3 16
8 7 8 -12 14 -9 72 40 8 7 19 12 23 10 16 -5 47 9 42 19 -4 5 7 14 22 21 15 7
32 18 36 25 4 7 20 13 35 13 16 0 33 5 40 12 7 7 12 8 12 4 0 -5 10 -2 23 7
20 13 44 22 70 26 4 0 7 -6 7 -14z m-2781 -57 c-4 -24 -14 -63 -22 -88 -8 -25
-22 -72 -32 -105 -9 -33 -25 -87 -35 -120 -10 -33 -26 -87 -35 -120 -31 -109
-129 -428 -156 -508 -11 -31 -27 -83 -35 -115 -8 -31 -21 -73 -29 -92 -7 -19
-35 -105 -60 -190 -25 -85 -57 -189 -71 -230 -13 -41 -40 -129 -60 -195 -43
-142 -93 -285 -107 -303 -24 -31 10 -34 124 -12 213 40 287 38 245 -9 -9 -10
-16 -20 -16 -24 0 -4 -33 -39 -73 -79 -40 -40 -104 -109 -142 -153 -39 -44
-87 -95 -107 -113 -20 -19 -49 -53 -65 -75 -15 -23 -44 -58 -63 -78 -66 -67
-97 -104 -126 -149 -16 -25 -37 -51 -48 -59 -10 -8 -41 -34 -68 -58 -80 -71
-97 -45 -48 74 18 42 42 93 54 112 12 20 59 110 105 201 45 91 105 208 133
259 42 81 48 98 38 116 -8 16 -9 35 -1 71 5 27 13 63 16 79 4 17 10 39 15 50
20 50 30 83 36 120 3 22 9 42 13 45 9 7 41 109 44 140 1 14 5 27 8 30 3 3 11
23 16 45 6 22 16 54 21 70 6 17 18 57 28 90 10 33 21 65 25 70 14 19 41 126
35 141 -3 7 -1 14 4 14 13 0 37 61 55 139 8 36 19 75 24 86 23 54 31 78 31 95
0 11 8 35 17 55 14 28 15 42 6 64 -9 26 -8 28 9 23 10 -2 18 -1 17 4 -1 5 1
16 4 24 18 40 47 135 47 151 0 11 13 49 29 86 27 65 37 92 62 166 6 17 29 68
50 112 22 44 39 88 39 97 0 26 32 88 46 88 8 0 9 -12 3 -42z m2271 -293 c0 -3
-2 -5 -5 -5 -3 0 -5 2 -5 5 0 3 2 5 5 5 3 0 5 -2 5 -5z m-270 -380 c0 -3 -2
-5 -5 -5 -3 0 -5 2 -5 5 0 3 2 5 5 5 3 0 5 -2 5 -5z m-2364 -183 c1 -15 -1
-21 -3 -14 -6 15 -43 16 -43 1 0 -5 -5 -7 -12 -3 -8 5 -6 11 6 20 13 9 14 13
4 17 -7 3 1 6 17 6 26 1 30 -3 31 -27z m-76 -117 c0 -3 -2 -5 -5 -5 -3 0 -5 2
-5 5 0 3 2 5 5 5 3 0 5 -2 5 -5z m-50 -116 c-8 -15 -8 -24 0 -33 8 -10 6 -15
-10 -19 -11 -3 -20 -1 -20 5 0 6 -7 8 -15 5 -25 -10 -28 12 -6 46 11 18 21 26
21 20 0 -7 4 -13 10 -13 5 0 9 10 8 23 -2 43 4 52 13 19 7 -21 6 -39 -1 -53z
m1752 49 c7 -45 -4 -139 -17 -144 -16 -7 -58 33 -52 49 2 7 -3 17 -12 24 -14
11 -13 12 7 13 12 0 25 6 27 13 19 54 26 67 34 67 5 0 10 -10 13 -22z m-1378
-36 c-7 -4 -13 -16 -15 -27 -3 -13 -13 -21 -29 -22 -23 -2 -23 -2 -5 6 l20 10
-20 1 c-11 1 -14 4 -7 7 6 2 9 10 6 15 -4 6 -3 8 2 5 6 -3 16 -2 24 4 8 5 20
9 25 9 6 0 5 -4 -1 -8z m-414 -77 c0 -3 -2 -5 -5 -5 -3 0 -5 2 -5 5 0 3 2 5 5
5 3 0 5 -2 5 -5z m378 -83 c-23 -5 -23 -10 5 -32 12 -10 19 -22 14 -26 -4 -4
-14 2 -23 14 -12 18 -19 20 -35 12 -13 -7 -19 -7 -19 0 0 5 6 10 13 11 9 0 8
2 -1 6 -19 7 28 31 48 24 12 -4 12 -6 -2 -9z m-425 -49 c-7 -2 -19 -2 -25 0
-7 3 -2 5 12 5 14 0 19 -2 13 -5z m427 -23 c0 -17 -15 -11 -28 11 -12 19 -11
19 8 9 11 -6 20 -15 20 -20z m-60 4 c0 -8 -5 -12 -10 -9 -6 4 -8 11 -5 16 9
14 15 11 15 -7z m-383 -30 c0 -9 -7 -12 -18 -9 -9 3 -20 1 -24 -5 -3 -5 1 -10
9 -10 9 0 16 -7 16 -15 0 -11 -7 -14 -25 -9 -15 4 -25 2 -25 -5 0 -6 8 -11 18
-11 24 0 50 -46 35 -61 -6 -6 -9 -19 -6 -28 4 -14 3 -14 -6 -1 -10 13 -13 13
-22 -3 -6 -9 -14 -15 -19 -12 -17 10 -49 -17 -36 -31 8 -8 15 -9 24 -2 8 7 12
7 12 -2 0 -10 4 -10 16 1 13 10 17 10 25 -2 13 -20 11 -29 -6 -35 -8 -4 -15
-10 -15 -15 0 -5 7 -9 15 -9 8 0 15 -4 15 -9 0 -5 -11 -8 -25 -8 -14 0 -28 3
-31 8 -3 5 -14 9 -25 9 -11 0 -17 -4 -14 -10 3 -5 1 -10 -5 -10 -6 0 -8 -5 -5
-10 4 -7 -3 -8 -21 -4 -21 6 -25 4 -19 -7 20 -34 27 -39 41 -28 7 6 18 8 24 4
5 -3 10 0 10 7 0 7 6 4 12 -6 9 -17 6 -24 -22 -47 -23 -20 -31 -34 -27 -47 3
-14 -1 -22 -15 -25 -11 -3 -17 -10 -13 -16 3 -6 1 -19 -4 -28 -9 -16 -10 -15
-11 6 0 13 -3 22 -6 18 -4 -3 -1 -34 5 -69 6 -35 13 -86 14 -113 2 -28 6 -55
10 -62 4 -6 0 -16 -8 -23 -8 -7 -13 -16 -10 -20 21 -34 -287 -147 -528 -193
-86 -17 -87 -15 -22 50 30 30 55 61 55 68 0 7 12 16 27 20 28 7 77 43 81 60 2
6 6 21 9 35 4 14 13 30 22 37 9 6 17 16 17 22 1 6 2 16 3 21 0 6 12 10 26 10
15 0 25 6 25 15 0 8 8 19 18 24 10 5 24 25 31 44 9 21 19 33 27 30 7 -2 17 4
23 15 8 15 8 22 -2 25 -6 2 -4 3 6 1 26 -3 42 33 28 63 -10 22 -8 30 16 62 15
20 27 41 25 48 -1 6 2 14 8 18 5 3 10 2 10 -4 0 -6 7 -8 15 -5 8 4 15 1 15 -5
0 -6 -7 -11 -15 -11 -8 0 -15 -5 -15 -11 0 -18 24 -4 37 22 7 13 13 18 13 12
0 -7 7 -13 15 -13 8 0 15 7 15 15 0 18 12 19 28 3 7 -7 12 -9 12 -5 0 5 -12
19 -26 32 -15 14 -22 25 -15 25 6 0 11 7 11 16 0 8 5 12 10 9 16 -10 12 12 -6
29 -12 12 -12 16 -2 16 10 0 10 2 -1 9 -17 11 19 33 47 29 11 -2 18 5 20 20 2
15 -2 22 -13 22 -14 0 -14 3 2 25 10 13 26 25 37 25 16 0 16 2 5 16 -10 12
-10 17 -1 23 19 12 69 1 69 -15z m-97 -10 c0 -8 -19 -13 -24 -6 -3 5 1 9 9 9
8 0 15 -2 15 -3z m2584 -25 c-2 -5 4 -14 16 -21 23 -15 27 -38 5 -38 -9 0 -15
-9 -15 -24 0 -13 -4 -26 -10 -28 -5 -1 -11 -22 -12 -45 -3 -43 -24 -65 -39
-41 -4 6 -11 49 -14 94 -9 100 9 141 50 122 14 -6 22 -15 19 -19z m-2104 -44
c0 -3 -3 -5 -7 -4 -5 1 -7 5 -5 10 1 5 -5 9 -14 9 -14 0 -14 2 -3 16 12 15 27
-1 29 -31z m7 -72 c-4 -3 -7 0 -7 7 0 7 3 10 7 7 3 -4 3 -10 0 -14z m-87 -8
c0 -3 -2 -5 -5 -5 -3 0 -5 2 -5 5 0 3 2 5 5 5 3 0 5 -2 5 -5z m-480 -20 c0 -3
-2 -5 -5 -5 -3 0 -5 2 -5 5 0 3 2 5 5 5 3 0 5 -2 5 -5z m180 -40 c0 -3 -2 -5
-5 -5 -3 0 -5 2 -5 5 0 3 2 5 5 5 3 0 5 -2 5 -5z m297 -12 c-4 -3 -10 -3 -14
0 -3 4 0 7 7 7 7 0 10 -3 7 -7z m48 -3 c-3 -5 -10 -10 -16 -10 -5 0 -9 5 -9
10 0 6 7 10 16 10 8 0 12 -4 9 -10z m-635 -55 c0 -3 -2 -5 -5 -5 -3 0 -5 2 -5
5 0 3 2 5 5 5 3 0 5 -2 5 -5z m10 -20 c0 -3 -2 -5 -5 -5 -3 0 -5 2 -5 5 0 3 2
5 5 5 3 0 5 -2 5 -5z m-60 -79 c0 -3 -5 -8 -12 -12 -7 -4 -8 -3 -4 4 7 12 16
16 16 8z m1357 -52 c-3 -3 -12 -4 -19 -1 -8 3 -5 6 6 6 11 1 17 -2 13 -5z
m-227 -259 c0 -3 -2 -5 -5 -5 -3 0 -5 2 -5 5 0 3 2 5 5 5 3 0 5 -2 5 -5z
m-170 -150 c0 -3 -2 -5 -5 -5 -3 0 -5 2 -5 5 0 3 2 5 5 5 3 0 5 -2 5 -5z
m-190 -90 c0 -3 -2 -5 -5 -5 -3 0 -5 2 -5 5 0 3 2 5 5 5 3 0 5 -2 5 -5z m-930
-115 c0 -26 3 -30 17 -22 21 12 43 -25 43 -73 0 -27 -5 -34 -25 -39 -18 -5
-27 -15 -32 -36 -10 -51 -20 -49 -67 15 -9 11 -16 14 -16 8 0 -7 -5 -13 -12
-13 -6 0 -9 3 -5 6 3 3 -8 24 -24 47 -16 22 -29 44 -29 48 0 19 50 61 66 55 8
-3 25 0 36 8 19 13 19 14 1 19 -10 3 -4 5 15 6 29 1 32 -2 32 -29z m-120 0 c0
-5 -4 -10 -10 -10 -5 0 -10 5 -10 10 0 6 5 10 10 10 6 0 10 -4 10 -10z m200 5
c0 -3 -2 -5 -5 -5 -3 0 -5 2 -5 5 0 3 2 5 5 5 3 0 5 -2 5 -5z m1040 -140 c0
-3 -2 -5 -5 -5 -3 0 -5 2 -5 5 0 3 2 5 5 5 3 0 5 -2 5 -5z m-133 -89 c-4 -9 4
-16 24 -20 26 -5 45 -46 22 -46 -5 0 -21 -20 -36 -45 -30 -47 -43 -53 -69 -32
-20 15 -31 75 -14 74 50 -1 64 18 20 29 l-26 7 39 22 c47 28 46 28 40 11z
m-103 -87 c-3 -5 -10 -7 -15 -3 -5 3 -7 10 -3 15 3 5 10 7 15 3 5 -3 7 -10 3
-15z m-8 -49 c11 -10 14 -10 14 -1 0 9 4 9 14 -1 7 -7 23 -19 34 -27 12 -8 19
-18 17 -21 -5 -9 -56 -1 -71 11 -6 5 -25 4 -43 -1 -43 -12 -55 -9 -62 15 -11
40 57 57 97 25z m-539 -7 c-4 -3 -10 -3 -14 0 -3 4 0 7 7 7 7 0 10 -3 7 -7z
m393 2 c0 -3 -2 -5 -5 -5 -3 0 -5 2 -5 5 0 3 2 5 5 5 3 0 5 -2 5 -5z m-480
-40 c0 -3 -2 -5 -5 -5 -3 0 -5 2 -5 5 0 3 2 5 5 5 3 0 5 -2 5 -5z m-23 -72
c-4 -3 -7 0 -7 7 0 7 3 10 7 7 3 -4 3 -10 0 -14z"/>
<path d="M3230 5015 c0 -3 2 -5 5 -5 3 0 5 2 5 5 0 3 -2 5 -5 5 -3 0 -5 -2 -5
-5z"/>
<path d="M3300 4915 c0 -3 2 -5 5 -5 3 0 5 2 5 5 0 3 -2 5 -5 5 -3 0 -5 -2 -5
-5z"/>
<path d="M3350 4845 c0 -3 2 -5 5 -5 3 0 5 2 5 5 0 3 -2 5 -5 5 -3 0 -5 -2 -5
-5z"/>
<path d="M3378 4803 c7 -3 16 -2 19 1 4 3 -2 6 -13 5 -11 0 -14 -3 -6 -6z"/>
<path d="M3383 4773 c4 -3 10 -3 14 0 3 4 0 7 -7 7 -7 0 -10 -3 -7 -7z"/>
<path d="M3355 4760 c3 -5 8 -10 11 -10 2 0 4 5 4 10 0 6 -5 10 -11 10 -5 0
-7 -4 -4 -10z"/>
<path d="M3306 4701 c-4 -7 -5 -15 -2 -18 9 -9 19 4 14 18 -4 11 -6 11 -12 0z"/>
<path d="M3390 4625 c0 -3 2 -5 5 -5 3 0 5 2 5 5 0 3 -2 5 -5 5 -3 0 -5 -2 -5
-5z"/>
<path d="M3390 4509 c0 -5 5 -7 10 -4 6 3 10 8 10 11 0 2 -4 4 -10 4 -5 0 -10
-5 -10 -11z"/>
<path d="M3520 4475 c0 -3 2 -5 5 -5 3 0 5 2 5 5 0 3 -2 5 -5 5 -3 0 -5 -2 -5
-5z"/>
<path d="M3513 4453 c4 -3 10 -3 14 0 3 4 0 7 -7 7 -7 0 -10 -3 -7 -7z"/>
<path d="M3190 4095 c0 -3 2 -5 5 -5 3 0 5 2 5 5 0 3 -2 5 -5 5 -3 0 -5 -2 -5
-5z"/>
<path d="M3280 3950 c0 -7 3 -10 7 -7 3 4 3 10 0 14 -4 3 -7 0 -7 -7z"/>
<path d="M2330 4310 c0 -5 5 -10 11 -10 5 0 7 5 4 10 -3 6 -8 10 -11 10 -2 0
-4 -4 -4 -10z"/>
<path d="M2281 4247 c2 -1 14 -10 26 -21 21 -17 21 -17 16 3 -3 13 -13 21 -26
21 -11 0 -18 -1 -16 -3z"/>
<path d="M2240 4105 c0 -3 2 -5 5 -5 3 0 5 2 5 5 0 3 -2 5 -5 5 -3 0 -5 -2 -5
-5z"/>
<path d="M2150 4015 c0 -3 2 -5 5 -5 3 0 5 2 5 5 0 3 -2 5 -5 5 -3 0 -5 -2 -5
-5z"/>
<path d="M2728 4433 c6 -2 18 -2 25 0 6 3 1 5 -13 5 -14 0 -19 -2 -12 -5z"/>
<path d="M2630 4130 c0 -7 3 -10 7 -7 3 4 3 10 0 14 -4 3 -7 0 -7 -7z"/>
<path d="M3590 4305 c0 -3 2 -5 5 -5 3 0 5 2 5 5 0 3 -2 5 -5 5 -3 0 -5 -2 -5
-5z"/>
<path d="M2023 3633 c4 -3 10 -3 14 0 3 4 0 7 -7 7 -7 0 -10 -3 -7 -7z"/>
<path d="M1986 3508 c5 -8 2 -9 -10 -5 -10 4 -15 3 -11 -3 10 -15 35 -12 35 5
0 8 -5 15 -11 15 -5 0 -7 -5 -3 -12z"/>
<path d="M1928 3493 c7 -3 16 -2 19 1 4 3 -2 6 -13 5 -11 0 -14 -3 -6 -6z"/>
<path d="M1873 3483 c4 -3 10 -3 14 0 3 4 0 7 -7 7 -7 0 -10 -3 -7 -7z"/>
<path d="M1840 3475 c0 -3 2 -5 5 -5 3 0 5 2 5 5 0 3 -2 5 -5 5 -3 0 -5 -2 -5
-5z"/>
<path d="M1850 3420 c-13 -8 -12 -10 3 -10 9 0 17 5 17 10 0 12 -1 12 -20 0z"/>
<path d="M1860 3353 c1 -18 20 -39 20 -21 0 9 -4 20 -10 23 -5 3 -10 3 -10 -2z"/>
<path d="M1760 3235 c0 -3 2 -5 5 -5 3 0 5 2 5 5 0 3 -2 5 -5 5 -3 0 -5 -2 -5
-5z"/>
<path d="M1690 2925 c0 -3 2 -5 5 -5 3 0 5 2 5 5 0 3 -2 5 -5 5 -3 0 -5 -2 -5
-5z"/>
<path d="M1643 2643 c4 -3 10 -3 14 0 3 4 0 7 -7 7 -7 0 -10 -3 -7 -7z"/>
<path d="M1621 2611 c-10 -7 -7 -9 12 -8 14 1 23 5 20 10 -6 9 -15 9 -32 -2z"/>
<path d="M1560 2394 c0 -3 6 -12 14 -20 20 -19 26 -18 26 6 0 13 -7 20 -20 20
-11 0 -20 -3 -20 -6z"/>
<path d="M1510 2310 c0 -5 7 -10 15 -10 8 0 15 5 15 10 0 6 -7 10 -15 10 -8 0
-15 -4 -15 -10z"/>
<path d="M1550 2315 c0 -3 2 -5 5 -5 3 0 5 2 5 5 0 3 -2 5 -5 5 -3 0 -5 -2 -5
-5z"/>
<path d="M1510 2225 c0 -3 2 -5 5 -5 3 0 5 2 5 5 0 3 -2 5 -5 5 -3 0 -5 -2 -5
-5z"/>
<path d="M1430 2125 c0 -3 2 -5 5 -5 3 0 5 2 5 5 0 3 -2 5 -5 5 -3 0 -5 -2 -5
-5z"/>
<path d="M3040 2595 c0 -3 2 -5 5 -5 3 0 5 2 5 5 0 3 -2 5 -5 5 -3 0 -5 -2 -5
-5z"/>
<path d="M3060 2595 c0 -3 2 -5 5 -5 3 0 5 2 5 5 0 3 -2 5 -5 5 -3 0 -5 -2 -5
-5z"/>
<path d="M3591 2544 c0 -11 3 -14 6 -6 3 7 2 16 -1 19 -3 4 -6 -2 -5 -13z"/>
<path d="M3570 2545 c0 -3 2 -5 5 -5 3 0 5 2 5 5 0 3 -2 5 -5 5 -3 0 -5 -2 -5
-5z"/>
<path d="M3650 2475 c0 -3 2 -5 5 -5 3 0 5 2 5 5 0 3 -2 5 -5 5 -3 0 -5 -2 -5
-5z"/>
<path d="M3190 2435 c0 -3 2 -5 5 -5 3 0 5 2 5 5 0 3 -2 5 -5 5 -3 0 -5 -2 -5
-5z"/>
<path d="M3443 2433 c4 -3 10 -3 14 0 3 4 0 7 -7 7 -7 0 -10 -3 -7 -7z"/>
<path d="M3483 2433 c4 -3 10 -3 14 0 3 4 0 7 -7 7 -7 0 -10 -3 -7 -7z"/>
<path d="M3523 2433 c9 -2 23 -2 30 0 6 3 -1 5 -18 5 -16 0 -22 -2 -12 -5z"/>
<path d="M3500 2385 c0 -3 2 -5 5 -5 3 0 5 2 5 5 0 3 -2 5 -5 5 -3 0 -5 -2 -5
-5z"/>
<path d="M3520 2380 c0 -7 3 -10 7 -7 3 4 3 10 0 14 -4 3 -7 0 -7 -7z"/>
<path d="M3516 2315 c4 -8 10 -12 15 -9 14 8 10 24 -6 24 -9 0 -12 -6 -9 -15z"/>
<path d="M3380 2270 c0 -5 5 -10 10 -10 6 0 10 5 10 10 0 6 -4 10 -10 10 -5 0
-10 -4 -10 -10z"/>
<path d="M1930 1375 c0 -3 2 -5 5 -5 3 0 5 2 5 5 0 3 -2 5 -5 5 -3 0 -5 -2 -5
-5z"/>
<path d="M1876 1293 c-6 -14 -5 -15 5 -6 7 7 10 15 7 18 -3 3 -9 -2 -12 -12z"/>
<path d="M1803 1198 c1 -8 -7 -12 -20 -10 -25 4 -31 -13 -9 -21 8 -3 21 2 30
12 18 20 20 31 6 31 -5 0 -9 -6 -7 -12z"/>
<path d="M1650 1096 c0 -10 9 -16 25 -16 14 0 25 5 25 10 0 6 -4 10 -9 10 -5
0 -16 3 -25 6 -11 4 -16 1 -16 -10z"/>
<path d="M1283 963 c4 -3 10 -3 14 0 3 4 0 7 -7 7 -7 0 -10 -3 -7 -7z"/>
<path d="M1443 933 c4 -3 10 -3 14 0 3 4 0 7 -7 7 -7 0 -10 -3 -7 -7z"/>
<path d="M1350 925 c0 -3 2 -5 5 -5 3 0 5 2 5 5 0 3 -2 5 -5 5 -3 0 -5 -2 -5
-5z"/>
<path d="M1280 915 c0 -3 2 -5 5 -5 3 0 5 2 5 5 0 3 -2 5 -5 5 -3 0 -5 -2 -5
-5z"/>
<path d="M1383 913 c4 -3 10 -3 14 0 3 4 0 7 -7 7 -7 0 -10 -3 -7 -7z"/>
<path d="M1360 885 c0 -3 2 -5 5 -5 3 0 5 2 5 5 0 3 -2 5 -5 5 -3 0 -5 -2 -5
-5z"/>
<path d="M1195 841 c-9 -16 13 -22 52 -15 31 6 34 8 18 15 -28 11 -63 11 -70
0z"/>
<path d="M1225 781 c-3 -5 -1 -12 4 -15 5 -3 11 1 15 9 6 16 -9 21 -19 6z"/>
<path d="M1050 655 c0 -3 2 -5 5 -5 3 0 5 2 5 5 0 3 -2 5 -5 5 -3 0 -5 -2 -5
-5z"/>
<path d="M895 1810 c3 -5 8 -10 11 -10 3 0 2 5 -1 10 -3 6 -8 10 -11 10 -3 0
-2 -4 1 -10z"/>
<path d="M863 1803 c4 -3 10 -3 14 0 3 4 0 7 -7 7 -7 0 -10 -3 -7 -7z"/>
<path d="M825 1710 c3 -5 8 -10 11 -10 3 0 2 5 -1 10 -3 6 -8 10 -11 10 -3 0
-2 -4 1 -10z"/>
<path d="M880 1715 c0 -3 2 -5 5 -5 3 0 5 2 5 5 0 3 -2 5 -5 5 -3 0 -5 -2 -5
-5z"/>
<path d="M691 1594 c0 -11 3 -14 6 -6 3 7 2 16 -1 19 -3 4 -6 -2 -5 -13z"/>
<path d="M773 1603 c4 -3 10 -3 14 0 3 4 0 7 -7 7 -7 0 -10 -3 -7 -7z"/>
<path d="M800 1605 c0 -3 2 -5 5 -5 3 0 5 2 5 5 0 3 -2 5 -5 5 -3 0 -5 -2 -5
-5z"/>
<path d="M720 1575 c0 -3 2 -5 5 -5 3 0 5 2 5 5 0 3 -2 5 -5 5 -3 0 -5 -2 -5
-5z"/>
<path d="M800 1514 c0 -8 5 -12 10 -9 6 4 8 11 5 16 -9 14 -15 11 -15 -7z"/>
<path d="M550 1315 c0 -3 2 -5 5 -5 3 0 5 2 5 5 0 3 -2 5 -5 5 -3 0 -5 -2 -5
-5z"/>
<path d="M796 1268 c-3 -13 -2 -26 2 -30 4 -4 8 6 9 23 3 35 -2 38 -11 7z"/>
<path d="M1452 619 c2 -7 10 -15 17 -17 8 -3 12 1 9 9 -2 7 -10 15 -17 17 -8
3 -12 -1 -9 -9z"/>
<path d="M5800 5410 c-47 -21 -105 -47 -130 -57 -164 -72 -204 -90 -279 -125
-46 -21 -95 -41 -110 -45 -14 -3 -31 -9 -36 -14 -6 -4 -44 -21 -85 -37 -41
-17 -154 -64 -250 -107 -163 -71 -412 -173 -505 -206 -57 -21 -53 -44 17 -88
32 -20 119 -74 193 -120 184 -115 178 -100 90 -209 -49 -60 -121 -158 -195
-262 -108 -152 -206 -284 -295 -397 -112 -143 -127 -165 -116 -176 18 -18 459
88 472 113 4 8 19 38 33 67 l25 52 -22 3 c-14 2 -22 10 -22 22 0 27 25 33 32
7 6 -23 23 -29 23 -8 -1 18 -25 47 -41 47 -11 0 -11 2 1 10 8 5 11 10 7 10 -4
0 -3 9 3 20 8 14 8 26 0 41 -15 27 5 52 36 45 22 -6 39 14 35 40 0 6 6 17 14
24 8 7 15 23 15 36 0 13 5 24 10 24 6 0 10 -4 10 -9 0 -14 38 -1 44 16 8 19
-1 33 -20 33 -11 0 -12 5 -5 18 5 9 10 22 11 27 7 28 15 37 47 50 19 8 32 19
29 24 -4 5 5 26 19 47 26 38 29 46 26 76 -1 9 6 19 16 22 14 5 18 16 17 53 -3
76 -3 81 -17 95 -7 7 -13 24 -14 37 -3 33 -21 50 -33 31 -8 -13 -10 -13 -10 2
0 9 -8 22 -17 27 -10 6 -12 11 -5 11 19 0 14 28 -8 40 -11 6 -17 16 -14 25 8
19 24 19 24 0 0 -12 3 -12 18 3 10 9 17 22 15 27 -3 9 36 27 112 52 17 5 29
15 27 22 -2 9 3 11 13 7 10 -4 14 -2 9 5 -10 17 17 28 44 18 19 -7 29 -6 43 7
11 9 31 18 46 19 49 3 54 5 49 13 -6 10 30 52 45 52 6 0 7 5 3 12 -4 7 -3 8 5
4 6 -4 9 -11 6 -16 -3 -5 3 -14 14 -20 23 -12 34 -1 20 20 -15 25 -10 38 12
33 12 -3 24 -1 28 4 3 5 27 22 54 37 26 15 45 32 42 36 -3 4 7 13 23 19 50 20
107 56 142 89 19 17 40 32 47 32 7 0 13 5 13 11 0 6 9 8 20 4 11 -4 20 -2 20
4 0 6 18 20 40 31 48 25 51 14 9 -50 -16 -25 -37 -58 -47 -74 -37 -62 -89
-136 -171 -245 -47 -63 -140 -189 -206 -280 -66 -92 -142 -197 -170 -233 -27
-37 -76 -104 -108 -150 -234 -333 -302 -429 -375 -520 -68 -85 -71 -106 -64
-411 6 -261 10 -270 72 -160 38 68 127 201 193 288 23 30 52 69 65 87 13 18
55 77 95 131 40 53 99 134 133 180 33 45 82 116 109 157 65 99 68 101 118 59
12 -10 78 -64 147 -120 69 -56 141 -118 162 -137 58 -55 62 -48 75 154 6 98
19 249 27 334 9 85 21 200 26 255 5 55 16 152 25 215 9 63 20 169 25 235 5 66
16 170 25 230 40 261 42 256 -95 195z m-230 -807 c0 -13 5 -23 12 -23 6 0 8
-3 5 -7 -4 -3 -2 -12 4 -19 8 -10 7 -18 -6 -30 -9 -10 -15 -27 -13 -39 3 -14
-2 -26 -14 -34 -14 -9 -18 -8 -18 4 0 8 -4 15 -10 15 -5 0 -10 -11 -10 -25 0
-15 -6 -25 -15 -25 -9 0 -12 -6 -9 -17 4 -13 3 -14 -3 -5 -5 7 -17 10 -26 7
-8 -4 -24 -2 -35 4 -26 14 -56 -14 -31 -29 8 -5 15 -6 17 -1 4 11 52 1 52 -10
0 -5 23 -9 50 -9 49 0 72 -25 40 -45 -6 -4 -8 -16 -4 -27 4 -13 1 -24 -7 -29
-11 -7 -10 -9 4 -9 10 0 15 -5 12 -10 -9 -15 -37 9 -31 27 3 7 1 13 -4 13 -6
0 -10 -9 -10 -20 0 -18 -2 -17 -25 5 -13 14 -33 25 -43 25 -19 0 -72 58 -72
79 0 6 -4 11 -10 11 -14 0 -13 -4 11 -45 12 -20 19 -38 16 -41 -8 -9 -37 27
-37 46 0 10 -5 20 -11 22 -7 2 -9 13 -4 27 6 18 9 21 16 10 7 -11 9 -10 9 4 0
9 5 17 10 17 6 0 9 3 8 8 -8 23 36 92 58 92 16 0 22 -4 18 -14 -3 -8 -1 -17 4
-20 6 -3 13 19 17 50 7 61 31 94 64 91 15 -1 21 -8 21 -24z m24 -208 c-6 -16
-34 -28 -34 -16 0 22 13 39 25 35 8 -3 11 -12 9 -19z m-237 -122 c-4 -3 -10
-3 -14 0 -3 4 0 7 7 7 7 0 10 -3 7 -7z m40 1 c-3 -3 -12 -4 -19 -1 -8 3 -5 6
6 6 11 1 17 -2 13 -5z m52 -16 c0 -16 -2 -18 -6 -8 -3 8 -11 18 -17 22 -7 5
-4 8 7 8 11 0 17 -7 16 -22z m38 -10 c-18 -12 -23 -10 -24 12 -1 17 1 18 17 8
14 -9 16 -14 7 -20z m-817 -213 c0 -3 -2 -5 -5 -5 -3 0 -5 2 -5 5 0 3 2 5 5 5
3 0 5 -2 5 -5z m-113 -177 c-3 -8 -6 -5 -6 6 -1 11 2 17 5 13 3 -3 4 -12 1
-19z"/>
<path d="M5428 4328 c5 -5 16 -8 23 -6 8 3 3 7 -10 11 -17 4 -21 3 -13 -5z"/>
<path d="M5537 4333 c-4 -3 -7 -11 -7 -17 0 -6 5 -5 12 2 6 6 9 14 7 17 -3 3
-9 2 -12 -2z"/>
<path d="M5230 4930 c0 -7 3 -10 7 -7 3 4 3 10 0 14 -4 3 -7 0 -7 -7z"/>
<path d="M4689 2874 c-45 -73 -98 -154 -127 -190 -30 -38 -100 -133 -132 -180
-14 -20 -39 -53 -55 -73 -17 -20 -39 -47 -48 -61 -10 -14 -33 -47 -52 -75 -19
-27 -57 -79 -85 -115 -64 -82 -63 -96 6 -201 30 -46 65 -102 76 -124 12 -22
31 -54 44 -71 13 -17 24 -34 24 -38 0 -4 16 -30 35 -59 19 -28 35 -55 35 -59
0 -8 139 -233 197 -317 29 -43 40 -68 34 -74 -7 -7 -206 -10 -567 -9 -309 1
-564 -3 -573 -8 -10 -5 -44 -48 -76 -97 -33 -48 -80 -114 -105 -146 -25 -32
-52 -69 -60 -81 -8 -12 -67 -93 -130 -179 -63 -87 -124 -172 -135 -190 -21
-34 -161 -222 -202 -271 -36 -43 -23 -46 162 -36 94 4 713 6 1376 3 l1207 -5
37 68 c21 38 53 94 71 124 70 120 200 342 214 368 8 15 27 48 43 74 15 26 27
54 27 64 0 18 -49 109 -86 159 -22 30 -174 283 -174 290 0 1 -41 69 -91 150
-50 81 -93 155 -97 164 -3 9 -42 75 -85 146 -44 72 -109 180 -145 240 -35 61
-83 141 -106 180 -22 38 -45 77 -51 87 -5 10 -59 100 -120 200 -164 270 -163
268 -195 336 -37 76 -48 77 -91 6z m69 -223 c7 -21 12 -62 12 -90 0 -107 22
-296 36 -312 20 -22 19 -73 -1 -65 -33 12 -20 -135 19 -206 19 -35 46 -97 59
-138 14 -41 44 -115 66 -163 23 -49 41 -91 41 -94 0 -3 11 -21 25 -39 14 -18
25 -42 25 -54 0 -26 29 -72 41 -64 5 3 9 -9 9 -25 0 -34 11 -39 30 -16 15 18
50 20 51 3 0 -10 2 -10 6 0 7 19 23 14 23 -7 0 -14 -5 -18 -20 -14 -13 4 -26
-1 -34 -12 -7 -10 -18 -15 -24 -11 -18 11 -15 -39 3 -54 8 -7 15 -21 15 -31 0
-27 36 -44 46 -21 13 29 16 84 4 77 -6 -4 -9 -13 -6 -21 3 -9 -1 -14 -13 -14
-19 0 -31 18 -31 47 0 11 7 14 26 9 14 -4 32 -2 40 4 17 15 34 4 34 -21 0 -21
36 -27 42 -7 4 10 8 9 20 -2 8 -8 13 -20 11 -26 -2 -7 3 -19 12 -28 9 -9 13
-20 10 -26 -7 -11 5 -17 45 -24 14 -3 26 -5 28 -7 3 -3 21 -6 37 -8 8 0 15
-10 15 -20 0 -11 9 -23 20 -26 11 -3 20 -13 20 -21 0 -8 9 -14 21 -14 15 0 19
-5 15 -15 -3 -8 -1 -15 4 -15 6 0 10 -6 10 -14 0 -17 27 -29 35 -16 11 18 25
10 31 -16 8 -32 38 -64 59 -64 14 0 20 -27 17 -70 -5 -62 -7 -67 -19 -63 -7 3
-13 19 -13 37 l-1 31 -14 -34 c-8 -18 -12 -37 -9 -42 9 -14 -18 -90 -37 -103
-14 -9 -18 -25 -17 -62 1 -29 -5 -62 -15 -81 -9 -18 -17 -45 -17 -61 0 -16 -3
-32 -7 -36 -4 -4 -8 -19 -9 -34 -1 -15 -2 -27 -3 -27 -2 0 -4 -8 -6 -18 -10
-52 -15 -52 -60 -1 -25 27 -45 55 -45 62 0 7 -4 20 -9 30 -12 23 -35 75 -60
140 -12 30 -45 100 -74 155 -29 56 -66 131 -81 167 -35 84 -49 112 -140 302
-42 87 -76 160 -76 163 0 3 -16 39 -35 81 -19 41 -35 80 -35 86 0 6 -9 26 -21
44 -11 18 -28 55 -38 81 -10 27 -33 79 -51 118 -18 38 -43 93 -55 122 -26 58
-28 59 -145 67 -210 14 -247 19 -269 33 -47 30 -10 38 187 38 l187 0 2 120 c3
194 13 458 19 467 11 17 21 7 32 -31z m166 -387 c11 -28 6 -54 -9 -54 -8 0
-15 3 -16 8 0 4 -2 16 -4 26 -7 35 17 51 29 20z m76 -179 c0 -3 -2 -5 -5 -5
-3 0 -5 2 -5 5 0 3 2 5 5 5 3 0 5 -2 5 -5z m40 -69 c0 -10 -6 -13 -17 -9 -15
6 -16 5 -3 -9 8 -9 18 -14 23 -11 4 2 7 -2 8 -9 0 -7 5 -4 10 7 l9 20 -3 -20
c-2 -11 -9 -19 -15 -17 -17 3 -15 -16 3 -34 11 -11 15 -12 15 -3 0 7 10 -1 23
-18 12 -16 27 -31 32 -32 6 -1 9 -20 8 -41 -2 -36 1 -40 23 -40 13 0 24 5 24
12 0 18 10 3 15 -22 2 -12 9 -28 15 -34 5 -7 7 -16 4 -19 -4 -3 3 -18 15 -33
11 -15 21 -23 21 -18 0 4 6 -1 14 -11 8 -12 19 -16 31 -12 13 5 16 3 12 -8 -4
-8 -2 -17 3 -20 6 -4 10 -15 10 -26 0 -13 13 -25 40 -36 32 -14 44 -27 56 -60
9 -24 20 -43 25 -43 4 0 10 -13 14 -29 3 -16 17 -39 30 -51 14 -13 28 -38 31
-57 3 -18 10 -33 16 -33 18 0 78 -55 78 -72 0 -21 -37 -12 -53 13 -7 11 -15
19 -19 19 -8 0 -30 16 -92 70 -23 20 -59 49 -81 65 -22 16 -51 42 -63 57 -13
16 -28 28 -34 28 -10 0 -218 205 -251 248 -52 68 -76 105 -71 113 3 5 0 8 -7
7 -7 -2 -16 14 -22 37 -5 22 -14 43 -20 46 -6 4 -5 9 1 13 6 3 8 16 5 27 -4
16 -2 20 8 17 8 -3 13 -15 11 -26 -4 -29 -3 -28 44 13 21 19 34 35 27 35 -6 0
-15 -4 -18 -10 -3 -5 -12 -10 -18 -9 -9 0 -8 2 1 6 19 7 4 23 -23 23 -13 0
-27 5 -31 12 -5 7 0 9 14 6 11 -3 30 1 41 9 12 8 21 11 21 7 0 -5 5 -3 12 4
14 14 48 -16 48 -42z m-123 -13 c-4 -3 -10 -3 -14 0 -3 4 0 7 7 7 7 0 10 -3 7
-7z m-277 -182 c0 -6 9 -8 20 -6 11 2 20 0 20 -6 0 -5 -9 -9 -19 -9 -11 0 -23
-4 -26 -10 -9 -14 -49 -12 -63 2 -10 10 -6 15 20 25 42 15 48 15 48 4z m7
-118 c-4 -3 -7 0 -7 7 0 7 3 10 7 7 3 -4 3 -10 0 -14z m69 -90 c-10 -10 -19 5
-10 18 6 11 8 11 12 0 2 -7 1 -15 -2 -18z m34 -27 c0 -7 -9 -16 -20 -19 -17
-4 -18 -2 -9 14 11 22 29 25 29 5z m-20 -45 c0 -11 -26 -22 -34 -14 -12 12 -5
23 14 23 11 0 20 -4 20 -9z m40 -36 c0 -3 -2 -5 -5 -5 -3 0 -5 2 -5 5 0 3 2 5
5 5 3 0 5 -2 5 -5z m27 -112 c-4 -3 -7 0 -7 7 0 7 3 10 7 7 3 -4 3 -10 0 -14z
m-47 2 c0 -3 -2 -5 -5 -5 -3 0 -5 2 -5 5 0 3 2 5 5 5 3 0 5 -2 5 -5z m79 -32
c0 -25 -1 -26 -9 -8 -12 27 -12 35 0 35 6 0 10 -12 9 -27z m57 -95 c25 -22 32
-36 31 -60 -1 -21 4 -34 17 -42 34 -20 56 -46 56 -66 0 -11 5 -20 11 -20 5 0
8 -4 5 -9 -6 -9 28 -53 41 -52 7 1 9 -3 12 -36 0 -7 8 -13 16 -13 8 0 15 -6
15 -13 0 -7 8 -22 18 -33 10 -10 16 -26 14 -35 -2 -9 13 -34 32 -55 20 -22 36
-42 36 -46 0 -4 7 -5 15 -2 11 5 13 2 9 -10 -3 -9 -11 -16 -18 -16 -6 0 -3 -5
7 -11 9 -5 17 -15 17 -21 0 -6 16 -33 35 -59 19 -27 35 -54 35 -59 0 -6 4 -10
10 -10 5 0 7 -6 4 -13 -3 -8 2 -20 11 -27 8 -7 15 -19 15 -26 0 -8 6 -14 14
-14 8 0 17 -8 21 -19 3 -10 14 -26 25 -36 23 -21 27 -55 6 -55 -7 0 -51 42
-97 93 -46 50 -111 119 -144 153 -33 34 -89 94 -125 135 -36 40 -77 87 -92
103 -16 16 -28 32 -28 35 0 4 -34 43 -76 86 -132 140 -149 178 -108 241 15 21
17 22 32 8 14 -14 16 -14 28 7 11 21 12 22 16 3 3 -16 7 -13 23 16 11 22 20
30 23 21 3 -8 19 -27 38 -43z m-1079 -155 c32 -15 70 -26 85 -24 22 2 27 -1
22 -13 -7 -18 30 -23 41 -6 15 24 27 9 21 -25 -7 -36 15 -50 39 -26 18 17 90
17 87 1 -2 -8 -4 -30 -4 -48 0 -19 -6 -36 -14 -39 -8 -3 -14 -8 -14 -12 0 -11
50 -32 61 -26 5 4 9 -3 9 -14 0 -24 35 -37 56 -20 27 22 47 70 35 82 -8 8 -11
6 -11 -7 0 -10 -10 -26 -22 -37 -26 -21 -38 -24 -38 -8 0 5 4 8 9 4 10 -6 33
28 38 56 1 9 -7 26 -18 37 l-20 22 23 -4 c13 -3 27 -5 31 -5 5 -1 5 -6 2 -11
-3 -6 1 -13 9 -16 9 -3 16 -13 16 -22 0 -8 3 -12 7 -8 4 4 7 19 8 33 0 14 6
28 13 30 6 3 12 -3 12 -12 0 -18 43 9 97 59 61 58 123 90 123 63 0 -24 -81
-126 -175 -221 -102 -102 -102 -106 -7 -142 34 -13 77 -30 95 -38 40 -18 150
-63 197 -81 19 -7 85 -37 145 -65 61 -29 135 -63 165 -77 177 -82 281 -134
325 -162 l50 -33 -45 6 c-25 4 -69 9 -98 11 -29 3 -65 11 -80 17 -15 6 -40 13
-57 15 -44 5 -95 23 -95 34 0 6 -6 9 -12 8 -13 -2 -40 6 -68 20 -8 4 -19 17
-24 28 -18 38 -78 57 -136 42 -9 -3 -14 4 -14 16 -1 18 -53 54 -80 55 -5 0
-17 6 -25 14 -9 8 -41 24 -71 36 -91 37 -111 46 -206 89 -50 22 -99 41 -109
41 -15 0 -230 -79 -330 -120 -225 -95 -592 -219 -668 -227 -34 -3 -66 -11 -70
-17 -5 -7 -7 -3 -5 9 2 12 11 20 22 20 13 0 22 10 27 29 4 15 15 36 24 46 10
11 14 23 11 29 -6 9 30 27 47 23 4 -1 7 3 7 9 0 5 4 8 8 5 5 -3 9 1 9 8 0 7
19 38 42 69 24 31 40 60 37 65 -7 11 19 35 40 38 8 1 14 -1 14 -6 0 -12 50
-19 57 -8 6 11 -17 29 -28 22 -10 -6 -19 24 -12 42 5 13 7 13 14 2 6 -9 9 -5
9 14 0 31 41 68 75 68 13 0 25 7 29 15 3 10 -1 15 -11 15 -27 0 -2 17 42 29
26 7 41 7 43 1 5 -14 40 -12 44 2 7 19 38 1 38 -22 0 -11 5 -20 10 -20 6 0 19
-15 30 -32 16 -27 20 -29 20 -13 0 12 -6 27 -12 35 -7 8 -3 7 8 -3 25 -21 27
-82 3 -82 -9 0 -15 -13 -17 -33 -2 -24 -8 -33 -20 -31 -24 2 -62 -12 -62 -22
0 -5 10 -10 23 -10 l22 -2 -22 -4 c-13 -2 -23 -11 -23 -19 0 -8 -10 -14 -22
-14 -13 0 -39 -10 -58 -22 -19 -12 -51 -30 -70 -40 -28 -15 -30 -17 -10 -14
39 7 101 32 94 38 -3 4 16 10 43 14 26 3 68 16 93 26 25 11 59 27 77 34 17 8
46 17 65 20 18 4 42 12 53 18 11 5 54 22 95 36 44 15 75 32 75 39 0 8 -43 44
-96 80 -136 94 -310 241 -321 272 -8 22 48 10 129 -28z m1783 -38 c0 -3 -2 -5
-5 -5 -3 0 -5 2 -5 5 0 3 2 5 5 5 3 0 5 -2 5 -5z m-1430 -100 c0 -9 -9 -15
-24 -15 -35 0 -42 18 -9 23 16 2 29 5 31 6 1 0 2 -6 2 -14z m20 10 c0 -3 -2
-5 -5 -5 -3 0 -5 2 -5 5 0 3 2 5 5 5 3 0 5 -2 5 -5z m-570 -10 c0 -3 -2 -5 -5
-5 -3 0 -5 2 -5 5 0 3 2 5 5 5 3 0 5 -2 5 -5z m1137 -33 c11 -11 11 -17 2 -29
-16 -19 -29 0 -28 42 0 17 3 23 6 15 4 -8 12 -21 20 -28z m-1117 13 c0 -3 -2
-5 -5 -5 -3 0 -5 2 -5 5 0 3 2 5 5 5 3 0 5 -2 5 -5z m1049 -19 c-1 -6 1 -24 6
-39 9 -34 -12 -118 -25 -98 -6 11 -9 11 -12 0 -10 -28 -36 10 -36 53 -1 61 21
108 47 101 12 -3 21 -10 20 -17z m-539 -16 c0 -5 -7 -10 -16 -10 -8 0 -12 5
-9 10 3 6 10 10 16 10 5 0 9 -4 9 -10z m637 -48 c23 -19 31 -98 10 -85 -7 3
-8 2 -4 -3 5 -5 14 -9 20 -9 5 0 12 -6 15 -14 3 -8 0 -11 -7 -7 -6 4 -11 2
-11 -5 0 -20 -29 11 -51 52 -36 71 -19 112 28 71z m-1007 3 c0 -3 -2 -5 -5 -5
-3 0 -5 2 -5 5 0 3 2 5 5 5 3 0 5 -2 5 -5z m767 -41 c-3 -3 -12 -4 -19 -1 -8
3 -5 6 6 6 11 1 17 -2 13 -5z m160 -11 c-4 -3 -7 0 -7 7 0 7 3 10 7 7 3 -4 3
-10 0 -14z m20 0 c-4 -3 -7 0 -7 7 0 7 3 10 7 7 3 -4 3 -10 0 -14z m-947 -68
c0 -3 -2 -5 -5 -5 -3 0 -5 2 -5 5 0 3 2 5 5 5 3 0 5 -2 5 -5z m1070 0 c0 -3
-2 -5 -5 -5 -3 0 -5 2 -5 5 0 3 2 5 5 5 3 0 5 -2 5 -5z m-75 -35 c3 -5 -1 -10
-10 -10 -9 0 -13 5 -10 10 3 6 8 10 10 10 2 0 7 -4 10 -10z m835 -15 c0 -3 -2
-5 -5 -5 -3 0 -5 2 -5 5 0 3 2 5 5 5 3 0 5 -2 5 -5z m-1280 -110 c0 -3 -2 -5
-5 -5 -3 0 -5 2 -5 5 0 3 2 5 5 5 3 0 5 -2 5 -5z m30 -30 c0 -3 -2 -5 -5 -5
-3 0 -5 2 -5 5 0 3 2 5 5 5 3 0 5 -2 5 -5z m-133 -42 c-4 -3 -7 0 -7 7 0 7 3
10 7 7 3 -4 3 -10 0 -14z m50 0 c-4 -3 -7 0 -7 7 0 7 3 10 7 7 3 -4 3 -10 0
-14z m323 12 c0 -3 -2 -5 -5 -5 -3 0 -5 2 -5 5 0 3 2 5 5 5 3 0 5 -2 5 -5z
m-420 -78 c-9 -22 -9 -22 -9 1 -1 13 -5 20 -11 17 -13 -8 -13 -3 1 32 l12 28
8 -28 c4 -16 4 -38 -1 -50z m30 68 c0 -3 -2 -5 -5 -5 -3 0 -5 2 -5 5 0 3 2 5
5 5 3 0 5 -2 5 -5z m140 -5 c0 -5 3 -9 8 -9 31 5 42 -3 42 -32 0 -29 -2 -30
-34 -26 -19 3 -39 0 -44 -5 -7 -7 -12 -2 -17 12 -4 13 -10 19 -14 14 -12 -18
-52 -48 -50 -39 1 6 -1 18 -5 27 -5 11 -1 26 9 40 12 15 15 17 12 6 -4 -10 -2
-18 4 -18 6 0 7 -4 4 -10 -3 -5 -1 -10 5 -10 6 0 13 7 16 15 4 8 10 12 15 9 5
-3 9 1 9 10 0 13 13 23 33 25 4 1 7 -3 7 -9z m216 -5 c-8 -8 -19 -15 -25 -15
-6 0 -8 7 -5 15 4 8 15 15 26 15 17 0 18 -2 4 -15z m-489 -17 c-3 -8 -6 -5 -6
6 -1 11 2 17 5 13 3 -3 4 -12 1 -19z m23 17 c0 -3 -2 -5 -5 -5 -3 0 -5 2 -5 5
0 3 2 5 5 5 3 0 5 -2 5 -5z m336 -61 c-11 -28 -26 -13 -25 24 0 30 2 33 9 17
8 -19 9 -18 11 5 2 24 2 23 6 -3 3 -16 2 -35 -1 -43z m34 31 c0 -13 -4 -27
-10 -30 -6 -4 -10 8 -10 30 0 22 4 34 10 30 6 -3 10 -17 10 -30z m-363 -14 c1
-11 -6 -21 -17 -24 -27 -7 -33 3 -13 25 21 23 28 23 30 -1z m463 10 c0 -6 17
-11 37 -13 21 -2 38 -9 41 -18 4 -13 3 -13 -11 -2 -17 15 -56 8 -69 -12 -5 -6
-8 -1 -8 12 0 13 -4 20 -10 17 -5 -3 -10 1 -10 9 0 9 7 16 15 16 8 0 15 -4 15
-9z m-573 -18 c-4 -3 -7 0 -7 7 0 7 3 10 7 7 3 -4 3 -10 0 -14z m525 -15 c-7
-7 -12 -8 -12 -2 0 14 12 26 19 19 2 -3 -1 -11 -7 -17z m-502 7 c0 -3 -2 -5
-5 -5 -3 0 -5 2 -5 5 0 3 2 5 5 5 3 0 5 -2 5 -5z m320 -10 c0 -3 -2 -5 -5 -5
-3 0 -5 2 -5 5 0 3 2 5 5 5 3 0 5 -2 5 -5z m434 -16 c-8 -14 -44 -10 -44 5 0
9 8 12 25 8 14 -2 22 -8 19 -13z m-414 6 c0 -3 -2 -5 -5 -5 -3 0 -5 2 -5 5 0
3 2 5 5 5 3 0 5 -2 5 -5z m317 -2 c-4 -3 -10 -3 -14 0 -3 4 0 7 7 7 7 0 10 -3
7 -7z"/>
<path d="M5245 1217 c-4 -10 -3 -25 5 -57 1 -6 29 42 30 51 0 13 -31 18 -35 6z"/>
<path d="M5190 1170 c0 -7 3 -10 7 -7 3 4 3 10 0 14 -4 3 -7 0 -7 -7z"/>
<path d="M5590 750 c0 -7 3 -10 7 -7 3 4 3 10 0 14 -4 3 -7 0 -7 -7z"/>
<path d="M5560 685 c0 -3 2 -5 5 -5 3 0 5 2 5 5 0 3 -2 5 -5 5 -3 0 -5 -2 -5
-5z"/>
<path d="M5570 665 c0 -3 2 -5 5 -5 3 0 5 2 5 5 0 3 -2 5 -5 5 -3 0 -5 -2 -5
-5z"/>
<path d="M4980 1970 c-9 -6 -10 -10 -3 -10 6 0 15 5 18 10 8 12 4 12 -15 0z"/>
<path d="M4835 1260 c-17 -7 -16 -9 10 -10 27 0 28 -2 11 -11 -15 -9 -16 -13
-5 -20 25 -16 39 -10 35 14 -3 12 -5 25 -5 30 -1 9 -20 8 -46 -3z"/>
<path d="M4720 1230 c0 -7 3 -10 7 -7 3 4 3 10 0 14 -4 3 -7 0 -7 -7z"/>
<path d="M4760 1229 c0 -5 5 -7 10 -4 6 3 10 8 10 11 0 2 -4 4 -10 4 -5 0 -10
-5 -10 -11z"/>
<path d="M4760 1200 c0 -5 5 -10 10 -10 6 0 10 5 10 10 0 6 -4 10 -10 10 -5 0
-10 -4 -10 -10z"/>
<path d="M3680 852 c0 -14 11 -21 26 -15 21 8 17 23 -6 23 -11 0 -20 -4 -20
-8z"/>
<path d="M3584 705 c-4 -10 -1 -21 7 -26 23 -14 31 -10 27 13 -4 27 -26 35
-34 13z"/>
<path d="M3366 673 c5 -5 12 -12 16 -18 4 -6 8 -2 8 8 0 9 -7 17 -17 17 -9 0
-12 -3 -7 -7z"/>
<path d="M3487 653 c-14 -13 -6 -33 13 -33 13 0 20 7 20 20 0 19 -20 27 -33
13z"/>
<path d="M3468 593 c7 -3 16 -2 19 1 4 3 -2 6 -13 5 -11 0 -14 -3 -6 -6z"/>
<path d="M4680 485 c0 -3 2 -5 5 -5 3 0 5 2 5 5 0 3 -2 5 -5 5 -3 0 -5 -2 -5
-5z"/>
<path d="M4230 470 c0 -7 3 -10 7 -7 3 4 3 10 0 14 -4 3 -7 0 -7 -7z"/>
<path d="M2818 1683 c-9 -10 -35 -49 -59 -88 -23 -38 -69 -106 -101 -150 -32
-44 -103 -143 -158 -220 -54 -77 -126 -176 -158 -220 -33 -44 -84 -116 -114
-160 -71 -107 -206 -298 -243 -345 -16 -21 -41 -55 -55 -75 -14 -20 -51 -70
-83 -111 -74 -95 -71 -109 16 -100 34 4 198 7 364 7 l303 -1 37 57 c21 32 65
95 98 140 33 45 112 155 175 244 63 89 150 208 193 266 42 57 81 112 87 122 5
10 43 60 85 110 41 51 75 96 75 100 0 35 -406 441 -442 441 -3 0 -12 -8 -20
-17z m98 -174 c13 -24 31 -52 41 -62 42 -40 106 -87 119 -87 8 0 17 -6 20 -14
3 -8 18 -17 33 -21 28 -6 56 -39 46 -55 -8 -12 -59 -26 -185 -51 -130 -25
-140 -28 -140 -41 0 -6 -11 -26 -25 -44 -14 -18 -25 -35 -25 -38 0 -6 -78
-121 -140 -206 -22 -30 -51 -71 -65 -90 -34 -47 -70 -95 -127 -168 -26 -33
-54 -74 -62 -91 -18 -34 -139 -161 -154 -161 -38 0 -56 124 -23 163 6 8 8 16
5 19 -3 3 7 8 21 12 14 4 25 13 25 21 0 9 12 20 26 25 20 8 25 15 21 33 -3 12
2 34 11 48 63 100 101 150 125 164 20 12 26 22 22 36 -4 11 -2 19 5 19 7 0 9
7 6 16 -4 12 -1 14 14 9 14 -5 22 -1 26 12 19 59 49 97 84 108 15 5 17 11 10
34 -10 35 24 81 59 81 13 0 29 7 37 15 10 10 21 12 32 6 11 -5 29 -3 50 5 30
13 32 18 33 62 3 279 23 346 75 241z m-596 -859 c0 -5 -2 -10 -4 -10 -3 0 -8
5 -11 10 -3 6 -1 10 4 10 6 0 11 -4 11 -10z"/>
<path d="M2440 810 c0 -5 -6 -10 -14 -10 -13 0 -31 -29 -22 -37 2 -2 19 10 37
26 25 23 29 31 16 31 -9 0 -17 -4 -17 -10z"/>
</g>
</svg>
